<?xml version="1.0" encoding="UTF-8"?>
<svg version="1.1" xmlns="http://www.w3.org/2000/svg" width="1024" height="1024">
<path d="M0 0 C1.32 0 2.64 0 4 0 C6.13496094 2.2931062 7.00215582 4.00646747 8 7 C9.2065625 8.2065625 9.2065625 8.2065625 10.4375 9.4375 C12.70611267 11.70611267 13.65088248 13.20539943 15 16 C15.99 16.66 16.98 17.32 18 18 C18.33 18.99 18.66 19.98 19 21 C19.66 21.33 20.32 21.66 21 22 C21.12375 22.639375 21.2475 23.27875 21.375 23.9375 C21.58125 24.618125 21.7875 25.29875 22 26 C22.86625 26.433125 22.86625 26.433125 23.75 26.875 C27.09047864 28.54523932 28.80257847 31.03051145 31 34 C31.33333333 35.33333333 31.66666667 36.66666667 32 38 C32.66 38.33 33.32 38.66 34 39 C34.66 39.33 35.32 39.66 36 40 C36.33333333 41.33333333 36.66666667 42.66666667 37 44 C37.66 44.33 38.32 44.66 39 45 C39.66 45.33 40.32 45.66 41 46 C41.12375 46.61875 41.2475 47.2375 41.375 47.875 C41.86239484 50.37172957 41.86239484 50.37172957 45 52 C48.3556206 54.2370804 48.19278041 54.42517038 49 58 C49.804375 58.474375 50.60875 58.94875 51.4375 59.4375 C54.55200529 61.33658859 54.75316169 62.67509785 56 66 C57.84659471 67.67662714 57.84659471 67.67662714 60 69 C63.90151515 71.56385281 63.90151515 71.56385281 64.4375 73.9375 C65.29635776 77.08664514 67.40992945 78.11631233 70 80 C74.9138322 83.57369615 74.9138322 83.57369615 75.37109375 85.8359375 C76.26384896 88.90790263 78.04254078 90.40333779 80.3125 92.625 C81.09238281 93.40101563 81.87226562 94.17703125 82.67578125 94.9765625 C84.83691229 97.04310853 84.83691229 97.04310853 87.16796875 98.0234375 C89.54539936 99.2907246 89.93103038 100.57093712 91 103 C94.71371474 108.03593516 99.18560935 112.05240854 104 116 C105.25286361 117.05912182 106.50291973 118.12157455 107.75 119.1875 C108.30171875 119.65542969 108.8534375 120.12335938 109.421875 120.60546875 C109.94265625 121.06566406 110.4634375 121.52585937 111 122 C111.54140625 122.47050781 112.0828125 122.94101563 112.640625 123.42578125 C114 125 114 125 114.34155273 126.83227539 C115.22520074 129.74140059 116.74677331 131.11890488 118.89453125 133.2578125 C119.68537109 134.04800781 120.47621094 134.83820313 121.29101562 135.65234375 C122.53915039 136.87630859 122.53915039 136.87630859 123.8125 138.125 C124.63298828 138.94871094 125.45347656 139.77242187 126.29882812 140.62109375 C131.16518083 145.48320217 131.16518083 145.48320217 137 149 C138.61201761 150.40340357 140.17243392 151.86744664 141.6875 153.375 C142.47511719 154.14585937 143.26273438 154.91671875 144.07421875 155.7109375 C146 158 146 158 146.46875 159.96875 C147.30734682 163.17514962 149.47955708 164.83646156 151.8125 167.125 C152.68519531 167.99382812 153.55789063 168.86265625 154.45703125 169.7578125 C156.65240978 171.69352261 158.37094542 172.82145829 161 174 C164.85429072 177.30367776 164.85429072 177.30367776 165.40625 179.94140625 C166.15618349 182.54150459 167.2206728 183.38276724 169.3125 185.0625 C169.94027344 185.57683594 170.56804687 186.09117187 171.21484375 186.62109375 C172.5684823 187.66668326 173.96336392 188.65914373 175.375 189.625 C177 191 177 191 177.375 192.875 C178.56684049 196.92725765 182.92513784 199.27374178 186.3125 201.5625 C188 203 188 203 188.4375 205 C188.82943123 207.27812157 188.82943123 207.27812157 191.4375 208.4375 C194.56234284 210.34289198 194.67918637 211.69796593 196 215 C197.65948148 216.01187895 199.32580562 217.0126546 201 218 C201.36162029 219.32594105 201.69728039 220.65938457 202 222 C202.66 222.33 203.32 222.66 204 223 C204.66 223.33 205.32 223.66 206 224 C206.33333333 225.33333333 206.66666667 226.66666667 207 228 C208.32467746 228.6837045 209.65863633 229.34964186 211 230 C212.125 232.0625 212.125 232.0625 213 234 C213.66 234.33 214.32 234.66 215 235 C215.185625 235.9590625 215.185625 235.9590625 215.375 236.9375 C215.58125 237.618125 215.7875 238.29875 216 239 C217.3153341 239.70151152 218.65117592 240.36525925 220 241 C222.05941785 243.36451679 222.9987495 244.9962485 224 248 C224.66 248.33 225.32 248.66 226 249 C226.33 249.99 226.66 250.98 227 252 C227.66 252.33 228.32 252.66 229 253 C229.33 253.99 229.66 254.98 230 256 C230.66 256.33 231.32 256.66 232 257 C232.33 257.99 232.66 258.98 233 260 C233.66 260.66 234.32 261.32 235 262 C237 264 237 264 238 267 C238.495 267.495 238.99 267.99 239.5 268.5 C241 270 241 270 242 273 C242.495 273.495 242.99 273.99 243.5 274.5 C245 276 245 276 246 279 C246.99126382 280.00866052 247.99238419 281.00767426 249 282 C249.95442588 283.42428655 250.86538324 284.87822098 251.7421875 286.3515625 C252.50595703 287.62966797 252.50595703 287.62966797 253.28515625 288.93359375 C253.80980469 289.82175781 254.33445312 290.70992188 254.875 291.625 C255.39191406 292.48996094 255.90882813 293.35492188 256.44140625 294.24609375 C258.94815156 298.45767843 261.42037862 302.68908231 263.84375 306.94921875 C264.24529297 307.65393311 264.64683594 308.35864746 265.06054688 309.0847168 C266.32247311 311.65743283 266.62341915 314.1756436 267 317 C267.93942486 319.02915769 268.92598385 321.03875312 270 323 C270.66 323 271.32 323 272 323 C273.34538144 325.72379681 274.67641535 328.45313508 276 331.1875 C276.57234375 332.34088867 276.57234375 332.34088867 277.15625 333.51757812 C280.56355932 340.60599841 280.56355932 340.60599841 280 345 C280.66 345 281.32 345 282 345 C282 346.65 282 348.3 282 350 C282.66 350 283.32 350 284 350 C284 351.65 284 353.3 284 355 C284.66 355 285.32 355 286 355 C286.33 357.97 286.66 360.94 287 364 C287.66 364 288.32 364 289 364 C289.33 366.97 289.66 369.94 290 373 C290.66 373 291.32 373 292 373 C292.66666667 377.66666667 293.33333333 382.33333333 294 387 C294.66 387 295.32 387 296 387 C296.06058594 387.60328125 296.12117187 388.2065625 296.18359375 388.828125 C296.26738281 389.62734375 296.35117187 390.4265625 296.4375 391.25 C296.51871094 392.03890625 296.59992187 392.8278125 296.68359375 393.640625 C296.97634993 395.82364639 297.42064419 397.8773182 298 400 C298.33 400 298.66 400 299 400 C299.68348581 403.92320856 300.3583342 407.84781172 301.02636719 411.77368164 C301.36234853 413.73851369 301.70449185 415.70228901 302.046875 417.66601562 C305.21291935 436.33636537 306.37908773 454.62416516 306.3125 473.5625 C306.31034485 474.66627991 306.3081897 475.77005981 306.30596924 476.9072876 C306.22378864 503.14000017 302.95312103 527.47176922 297 553 C296.34 553 295.68 553 295 553 C295.061875 554.5159375 295.061875 554.5159375 295.125 556.0625 C294.99426157 560.18076052 294.26749214 563.11830533 293 567 C292.34 567 291.68 567 291 567 C287.37088203 576.48313033 287.37088203 576.48313033 285.4375 586.375 C284.87106205 591.06834301 283.09046746 594.79961887 281 599 C280.34 599 279.68 599 279 599 C279.05897461 600.10903687 279.05897461 600.10903687 279.11914062 601.24047852 C278.99319394 604.15764121 278.46716661 605.61206421 277.09375 608.15234375 C276.68350586 608.9220752 276.27326172 609.69180664 275.85058594 610.48486328 C275.40489258 611.2942334 274.95919922 612.10360352 274.5 612.9375 C274.04657227 613.77780762 273.59314453 614.61811523 273.12597656 615.48388672 C271.76370408 617.99668196 270.38522679 620.49979747 269 623 C268.61650391 623.69528809 268.23300781 624.39057617 267.83789062 625.10693359 C256.55306604 645.48231132 256.55306604 645.48231132 252 647 C251.30741771 648.99117408 250.64252365 650.9921136 250 653 C248.5 654.625 248.5 654.625 247 656 C246.649375 656.70125 246.29875 657.4025 245.9375 658.125 C245 660 245 660 243 661 C242.67 661.99 242.34 662.98 242 664 C241.01 664.33 240.02 664.66 239 665 C238.87625 665.556875 238.7525 666.11375 238.625 666.6875 C237.66290667 670.24724531 235.48602029 672.34053643 233 675 C232.278125 675.350625 231.55625 675.70125 230.8125 676.0625 C228.74288633 676.87467324 228.74288633 676.87467324 228.125 679.375 C226.82719083 682.40322141 225.45267216 683.04478648 222.75585938 684.75976562 C219.38570171 687.14024406 216.57876785 690.13474928 213.6875 693.0625 C213.05521484 693.68705078 212.42292969 694.31160156 211.77148438 694.95507812 C211.17013672 695.55900391 210.56878906 696.16292969 209.94921875 696.78515625 C209.40612061 697.33051025 208.86302246 697.87586426 208.3034668 698.43774414 C206.76958442 700.08298463 206.76958442 700.08298463 206 703 C205.071875 703.185625 205.071875 703.185625 204.125 703.375 C201.72376733 703.82054958 201.72376733 703.82054958 200.5 706.5 C199 709 199 709 196.9375 709.5625 C196.298125 709.706875 195.65875 709.85125 195 710 C194.67 710.66 194.34 711.32 194 712 C193.67 712.66 193.34 713.32 193 714 C192.44699219 714.11601563 191.89398437 714.23203125 191.32421875 714.3515625 C187.98256801 715.28385498 185.53037105 717.30299216 182.8125 719.375 C182.26658203 719.77460937 181.72066406 720.17421875 181.15820312 720.5859375 C178.41506242 722.65264079 177.11048883 723.66853352 176 727 C174.95779297 727.12375 174.95779297 727.12375 173.89453125 727.25 C170.32686841 728.17441466 167.68712058 729.94832628 164.6875 732 C137.32785548 750.06162622 106.87152181 763.29958673 75 771 C74.12698242 771.21108398 73.25396484 771.42216797 72.35449219 771.63964844 C-5.46456516 790.12404957 -89.02923834 777.83787008 -157.37890625 735.734375 C-161.32959712 733.25803214 -165.24629273 730.73139743 -169.15625 728.19140625 C-172.39779416 726.09676437 -175.33050305 724.22316565 -179 723 C-179.495 721.515 -179.495 721.515 -180 720 C-181.92722 718.39398334 -183.84923891 716.90825019 -185.875 715.4375 C-191.38219778 711.32782113 -196.4704638 706.98821769 -201.5078125 702.30859375 C-203.69709164 700.28059379 -205.92299995 698.31788817 -208.1875 696.375 C-211.70528835 693.33395504 -214.93733641 690.06796647 -218.140625 686.69921875 C-220.01318873 684.98794727 -221.70752468 684.04812546 -224 683 C-226.00870354 681.3632786 -226.89261 680.57274667 -227.375 678 C-227.84547308 675.71588361 -227.84547308 675.71588361 -230.5 674.5 C-233 673 -233 673 -233.5625 670.9375 C-233.706875 670.298125 -233.85125 669.65875 -234 669 C-235.3153341 668.29848848 -236.65117592 667.63474075 -238 667 C-240.05941785 664.63548321 -240.9987495 663.0037515 -242 660 C-242.66 659.67 -243.32 659.34 -244 659 C-244.12375 658.195625 -244.2475 657.39125 -244.375 656.5625 C-244.58125 655.716875 -244.7875 654.87125 -245 654 C-246.96672915 652.8499169 -246.96672915 652.8499169 -249 652 C-249.495 650.515 -249.495 650.515 -250 649 C-250.495 648.505 -250.99 648.01 -251.5 647.5 C-253 646 -253 646 -254 643 C-254.43054688 642.57976563 -254.86109375 642.15953125 -255.3046875 641.7265625 C-257.73445982 639.25200175 -259.37101737 636.34221777 -261.125 633.375 C-261.70942871 632.39225098 -261.70942871 632.39225098 -262.30566406 631.38964844 C-280.46861354 600.52574311 -280.46861354 600.52574311 -280 592 C-280.66 592 -281.32 592 -282 592 C-282.50779824 589.46100881 -283.01177804 586.92933175 -283.4375 584.375 C-283.91284999 581.75371613 -283.91284999 581.75371613 -286 579 C-290.47156852 572.29264722 -291.52050382 564.91995413 -292 557 C-292.66 557 -293.32 557 -294 557 C-294.144375 555.7625 -294.28875 554.525 -294.4375 553.25 C-294.78688502 550.43495501 -295.20379366 547.7298503 -296 545 C-296.33 545 -296.66 545 -297 545 C-297.80618886 541.0653377 -298.59197266 537.12683134 -299.375 533.1875 C-299.59671875 532.10662109 -299.8184375 531.02574219 -300.046875 529.91210938 C-303.48717834 512.45762919 -304.37941022 495.19198817 -304.3125 477.4375 C-304.31067719 476.42909058 -304.30885437 475.42068115 -304.30697632 474.38171387 C-304.23180424 449.62242998 -301.05151273 426.24126523 -296 402 C-295.34 402 -294.68 402 -294 402 C-294 399.36 -294 396.72 -294 394 C-293.34 394 -292.68 394 -292 394 C-291.87882813 393.39414062 -291.75765625 392.78828125 -291.6328125 392.1640625 C-290.421875 386.109375 -289.2109375 380.0546875 -288 374 C-287.34 374 -286.68 374 -286 374 C-285.67 371.03 -285.34 368.06 -285 365 C-284.34 365 -283.68 365 -283 365 C-282.814375 363.1128125 -282.814375 363.1128125 -282.625 361.1875 C-282.30131941 357.89674737 -281.93395001 356.90092502 -280 354 C-278.89385661 352.01534007 -278.89385661 352.01534007 -278.5625 349.6875 C-277.98980004 346.95126687 -277.09903262 344.56440944 -276 342 C-275.34 342 -274.68 342 -274 342 C-273.91878906 341.01902344 -273.83757812 340.03804688 -273.75390625 339.02734375 C-273.09297462 334.40082235 -271.10518931 330.65452835 -268.9375 326.5625 C-268.56044922 325.83095703 -268.18339844 325.09941406 -267.79492188 324.34570312 C-266.87240704 322.55906047 -265.9374688 320.77884171 -265 319 C-264.34 319 -263.68 319 -263 319 C-263 317.35 -263 315.7 -263 314 C-262.01 313.67 -261.02 313.34 -260 313 C-259.91492188 312.16082031 -259.82984375 311.32164062 -259.7421875 310.45703125 C-258.8728788 306.40788282 -257.19201524 303.22157149 -255.125 299.6875 C-254.73368896 299.0061499 -254.34237793 298.3247998 -253.93920898 297.62280273 C-250.77881974 292.18688377 -247.4548973 286.85614952 -244.0625 281.5625 C-243.35407959 280.45297974 -243.35407959 280.45297974 -242.63134766 279.32104492 C-239.24630103 274.12315052 -239.24630103 274.12315052 -237 273 C-236.71125 272.195625 -236.4225 271.39125 -236.125 270.5625 C-235 268 -235 268 -233 267.0625 C-230.64994359 266.09919164 -230.64994359 266.09919164 -229.875 262.9375 C-229.58625 261.968125 -229.2975 260.99875 -229 260 C-228.34 259.67 -227.68 259.34 -227 259 C-226.67 258.01 -226.34 257.02 -226 256 C-225.34 255.67 -224.68 255.34 -224 255 C-223.67 254.01 -223.34 253.02 -223 252 C-222.34 251.67 -221.68 251.34 -221 251 C-220.5359375 250.01 -220.5359375 250.01 -220.0625 249 C-219 247 -219 247 -216 246 C-215.65657551 244.66923011 -215.32380126 243.33568021 -215 242 C-214.01 241.34 -213.02 240.68 -212 240 C-211.71125 239.360625 -211.4225 238.72125 -211.125 238.0625 C-209.6278324 235.31769273 -207.67447923 234.53782556 -205 233 C-203.05460558 230.24398878 -203.05460558 230.24398878 -202.08203125 228.0390625 C-200.87292745 225.76053477 -199.50296517 224.20254143 -197.6875 222.375 C-197.11386719 221.78460938 -196.54023438 221.19421875 -195.94921875 220.5859375 C-194 219 -194 219 -191.55859375 218.07421875 C-188.37008372 216.73553133 -186.73241722 214.95654616 -184.375 212.4375 C-179.24284487 207.15350596 -173.80260405 202.52827526 -168 198 C-167.08734375 197.28199219 -166.1746875 196.56398438 -165.234375 195.82421875 C-159.40639099 191.34176656 -153.40762965 187.20089514 -147.25 183.1875 C-146.55310059 182.73133301 -145.85620117 182.27516602 -145.13818359 181.80517578 C-133.00031532 174 -133.00031532 174 -128 174 C-126.66213095 191.93712166 -127.40398904 208.37353528 -131 226 C-131.33355586 227.66662215 -131.66695292 229.33327611 -132 231 C-132.66 231 -133.32 231 -134 231 C-133.93039062 232.05960938 -133.86078125 233.11921875 -133.7890625 234.2109375 C-133.79173225 240.27394856 -135.66875804 245.85627717 -137.375 251.625 C-137.85066406 253.28402344 -137.85066406 253.28402344 -138.3359375 254.9765625 C-139.79136147 260.02203226 -141.31828965 265.02482515 -143 270 C-143.66 270 -144.32 270 -145 270 C-145.07347656 270.87011719 -145.07347656 270.87011719 -145.1484375 271.7578125 C-145.59649405 276.43923092 -146.298021 280.57485459 -148 285 C-148.66 285 -149.32 285 -150 285 C-150.309375 286.2375 -150.61875 287.475 -150.9375 288.75 C-151.29166667 290.16666667 -151.64583333 291.58333333 -152 293 C-152.24943359 294.02867187 -152.24943359 294.02867187 -152.50390625 295.078125 C-152.93248537 296.73844724 -153.45775006 298.37325017 -154 300 C-154.49182052 302.24418942 -154.94884999 304.49386842 -155.40234375 306.74609375 C-156.01166641 309.04399685 -156.90045517 310.90008498 -158 313 C-159.12077024 316.01309557 -159.12077024 316.01309557 -159.375 319.375 C-160.05776507 325.35199259 -161.58505412 331.16223585 -163 337 C-163.66 337 -164.32 337 -165 337 C-164.97679687 337.57105469 -164.95359375 338.14210938 -164.9296875 338.73046875 C-164.79548752 344.759882 -165.40799072 350.40190343 -166.46484375 356.3359375 C-167.91347491 366.25430267 -168.18645095 376.17375948 -168.18530273 386.18041992 C-168.18748663 388.29952184 -168.20571812 390.41809895 -168.22460938 392.53710938 C-168.25711712 400.75257973 -167.70126743 408.63038462 -166.4309082 416.75 C-165.92928597 420.53334007 -165.91486332 424.14705815 -166.125 427.94921875 C-165.97411968 430.42459898 -165.21922771 431.85365122 -164 434 C-162.33947383 436.98655785 -161.67561138 439.34307107 -161.375 442.75 C-161.30023438 443.54921875 -161.22546875 444.3484375 -161.1484375 445.171875 C-161.09945312 445.77515625 -161.05046875 446.3784375 -161 447 C-160.34 447 -159.68 447 -159 447 C-157.70456897 450.04007685 -156.41434023 453.08233552 -155.125 456.125 C-154.76019531 456.9809375 -154.39539063 457.836875 -154.01953125 458.71875 C-152.16449334 463.10338507 -150.4558335 467.46288784 -149 472 C-148.03736568 474.10881936 -148.03736568 474.10881936 -146.3125 476.0625 C-138.796875 485.609375 -138.796875 485.609375 -137 491 C-136.34 491.33 -135.68 491.66 -135 492 C-134.67 492.99 -134.34 493.98 -134 495 C-133.34 495.33 -132.68 495.66 -132 496 C-131.67 496.99 -131.34 497.98 -131 499 C-130.01 499.7115625 -130.01 499.7115625 -129 500.4375 C-127 502 -127 502 -126.54394531 503.90380859 C-125.90805003 506.3543458 -125.06774143 507.31867662 -123.296875 509.1015625 C-122.73581055 509.6689917 -122.17474609 510.2364209 -121.59667969 510.82104492 C-120.68257324 511.71400269 -120.68257324 511.71400269 -119.75 512.625 C-119.11739258 513.24673096 -118.48478516 513.86846191 -117.83300781 514.5090332 C-84.68729176 546.55953545 -40.07986687 561.90702393 5.52758789 561.40478516 C15.90277604 561.22241108 25.89038735 560.34274753 36 558 C36.78084961 557.82307617 37.56169922 557.64615234 38.36621094 557.46386719 C60.57650765 552.31378237 81.5573208 543.73139763 100.25 530.5 C100.82830566 530.09104492 101.40661133 529.68208984 102.00244141 529.26074219 C104.72261384 527.24611184 105.9034305 526.28970849 107 523 C108.33333333 522.66666667 109.66666667 522.33333333 111 522 C111.33 521.01 111.66 520.02 112 519 C113.32512803 518.63541175 114.66004754 518.30564078 116 518 C117.68196432 516.77432386 117.68196432 516.77432386 119.19921875 515.19921875 C119.76833984 514.63396484 120.33746094 514.06871094 120.92382812 513.48632812 C121.50583984 512.89271484 122.08785156 512.29910156 122.6875 511.6875 C123.28111328 511.10548828 123.87472656 510.52347656 124.48632812 509.92382812 C125.05158203 509.35470703 125.61683594 508.78558594 126.19921875 508.19921875 C126.71315186 507.68190186 127.22708496 507.16458496 127.7565918 506.6315918 C129.13687567 505.0441616 129.13687567 505.0441616 129.52270508 502.89379883 C130 501 130 501 132.4375 499.5 C133.283125 499.005 134.12875 498.51 135 498 C136.44148921 495.69361726 137.1351729 493.59448129 138 491 C138.66 490.67 139.32 490.34 140 490 C140.67783028 488.33784227 141.34219074 486.67018238 142 485 C143.17790095 483.06448201 144.38983981 481.14948937 145.625 479.25 C149.83295829 472.6347072 153.10029971 465.6840589 156.3359375 458.5546875 C158 455 158 455 160 452 C161.11785113 449.88214887 161.11785113 449.88214887 162 447 C162.33 446.01 162.66 445.02 163 444 C163.37224418 442.27463463 163.7250006 440.54499691 164.0625 438.8125 C164.23910156 437.91144531 164.41570312 437.01039063 164.59765625 436.08203125 C164.73042969 435.39496094 164.86320312 434.70789063 165 434 C165.66 434 166.32 434 167 434 C166.95359375 432.28876953 166.95359375 432.28876953 166.90625 430.54296875 C166.90625 426.81154766 167.38733649 423.37178947 168.06787109 419.71240234 C173.45260994 389.80732728 170.59078116 357.19797551 164.55078125 327.6484375 C164.12186004 324.8072147 164.01033357 322.65443257 164.12890625 319.84375 C164.22303808 313.66527915 162.35582451 308.00430866 160.625 302.125 C160.30789063 300.99835938 159.99078125 299.87171875 159.6640625 298.7109375 C157.96322819 292.57621738 157.96322819 292.57621738 155 287 C153.1859817 283.63005544 151.78127001 280.11929403 150.375 276.5625 C149.92898438 275.45003906 149.48296875 274.33757812 149.0234375 273.19140625 C148.06941416 270.21645562 147.78063713 268.0883983 148 265 C147.34 265 146.68 265 146 265 C144.68270177 261.91869487 143.3720095 258.83462237 142.0625 255.75 C141.50272461 254.44095703 141.50272461 254.44095703 140.93164062 253.10546875 C140.39506836 251.83896484 140.39506836 251.83896484 139.84765625 250.546875 C139.51773682 249.77182617 139.18781738 248.99677734 138.84790039 248.19824219 C138 246 138 246 137.46655273 243.82519531 C137.09809725 241.89795826 137.09809725 241.89795826 135.6875 240.25 C132.94646245 236.59528327 130.55541807 232.37154702 129.5078125 227.8984375 C129.07725219 225.75061794 129.07725219 225.75061794 127 223.625 C124.72707482 220.6417857 124.48743956 218.65579668 124 215 C122.86237792 213.86237792 121.71431153 212.73446264 120.53588867 211.63916016 C118.81507063 209.80263618 117.67498051 207.95794554 116.42578125 205.7734375 C115.93239258 204.92064209 115.43900391 204.06784668 114.93066406 203.18920898 C114.39666992 202.26052002 113.86267578 201.33183105 113.3125 200.375 C100.8385194 179.02880439 87.10583881 158.55536058 73.16503906 138.15014648 C72.63214767 137.36750931 72.09925629 136.58487213 71.55021667 135.77851868 C70.54191657 134.29786302 69.5307479 132.81915552 68.51631165 131.34269714 C66.64044051 128.58439201 65.06045557 126.18136671 64 123 C63.525625 122.54625 63.05125 122.0925 62.5625 121.625 C61 120 61 120 60.0625 117.5625 C59.18237596 114.95013057 59.18237596 114.95013057 57.265625 113.3515625 C54.18622066 110.15535317 52.0186511 106.57525857 49.6875 102.8125 C49.17550049 101.99386475 48.66350098 101.17522949 48.13598633 100.33178711 C25.18034978 63.44724171 25.18034978 63.44724171 17.5625 48.5625 C16.82193359 47.14130859 16.82193359 47.14130859 16.06640625 45.69140625 C14.96063334 42.90064606 14.77901634 40.96980476 15 38 C14.34 38 13.68 38 13 38 C0.28577603 11.50898002 0.28577603 11.50898002 0 0 Z M2 8 C3 10 3 10 3 10 Z M3 11 C4 13 4 13 4 13 Z M4 13 C5 15 5 15 5 15 Z M7 21 C8 23 8 23 8 23 Z M11 30 C12 32 12 32 12 32 Z M-129 192 C-129 194.97 -129 197.94 -129 201 C-128.67 201 -128.34 201 -128 201 C-128 198.03 -128 195.06 -128 192 C-128.33 192 -128.66 192 -129 192 Z M-130 202 C-130 204.31 -130 206.62 -130 209 C-129.67 209 -129.34 209 -129 209 C-129 206.69 -129 204.38 -129 202 C-129.33 202 -129.66 202 -130 202 Z M-131 210 C-131 211.65 -131 213.3 -131 215 C-130.67 215 -130.34 215 -130 215 C-130 213.35 -130 211.7 -130 210 C-130.33 210 -130.66 210 -131 210 Z M-132 216 C-132 217.65 -132 219.3 -132 221 C-131.67 221 -131.34 221 -131 221 C-131 219.35 -131 217.7 -131 216 C-131.33 216 -131.66 216 -132 216 Z M-133 222 C-132 226 -132 226 -132 226 Z M132 230 C133 232 133 232 133 232 Z M-136 236 C-135 239 -135 239 -135 239 Z M-137 240 C-136 243 -136 243 -136 243 Z M-138 244 C-137 247 -137 247 -137 247 Z M-140 251 C-139 254 -139 254 -139 254 Z M144 255 C145 257 145 257 145 257 Z M-142 257 C-141 260 -141 260 -141 260 Z M-143 260 C-142 263 -142 263 -142 263 Z M146 260 C147 262 147 262 147 262 Z M-144 264 C-143 266 -143 266 -143 266 Z M-147 273 C-146 276 -146 276 -146 276 Z M151 273 C152 275 152 275 152 275 Z M153 278 C154 280 154 280 154 280 Z M154 281 C155 283 155 283 155 283 Z M-156 301 C-155 303 -155 303 -155 303 Z M-158 307 C-157 309 -157 309 -157 309 Z M-262 315 C-261 317 -261 317 -261 317 Z M-161 317 C-160 320 -160 320 -160 320 Z M165 320 C166 324 166 324 166 324 Z M-163 324 C-162 328 -162 328 -162 328 Z M166 324 C167 328 167 328 167 328 Z M-164 329 C-163 332 -163 332 -163 332 Z M167 329 C168 333 168 333 168 333 Z M-271 333 C-270 335 -270 335 -270 335 Z M168 334 C168 335.98 168 337.96 168 340 C168.33 340 168.66 340 169 340 C169 338.02 169 336.04 169 334 C168.67 334 168.34 334 168 334 Z M277 338 C278 340 278 340 278 340 Z M169 341 C169 342.98 169 344.96 169 347 C169.33 347 169.66 347 170 347 C170 345.02 170 343.04 170 341 C169.67 341 169.34 341 169 341 Z M-167 342 C-167 343.65 -167 345.3 -167 347 C-166.67 347 -166.34 347 -166 347 C-166 345.35 -166 343.7 -166 342 C-166.33 342 -166.66 342 -167 342 Z M-277 347 C-276 349 -276 349 -276 349 Z M-168 348 C-168 349.65 -168 351.3 -168 353 C-167.67 353 -167.34 353 -167 353 C-167 351.35 -167 349.7 -167 348 C-167.33 348 -167.66 348 -168 348 Z M170 348 C170 350.64 170 353.28 170 356 C170.33 356 170.66 356 171 356 C171 353.36 171 350.72 171 348 C170.67 348 170.34 348 170 348 Z M-169 354 C-169 355.98 -169 357.96 -169 360 C-168.67 360 -168.34 360 -168 360 C-168 358.02 -168 356.04 -168 354 C-168.33 354 -168.66 354 -169 354 Z M171 357 C171 360.63 171 364.26 171 368 C171.33 368 171.66 368 172 368 C172 364.37 172 360.74 172 357 C171.67 357 171.34 357 171 357 Z M-282 360 C-281 362 -281 362 -281 362 Z M-170 361 C-170 364.3 -170 367.6 -170 371 C-169.67 371 -169.34 371 -169 371 C-169 367.7 -169 364.4 -169 361 C-169.33 361 -169.66 361 -170 361 Z M288 367 C289 369 289 369 289 369 Z M172 369 C172 380.88 172 392.76 172 405 C172.33 405 172.66 405 173 405 C173 393.12 173 381.24 173 369 C172.67 369 172.34 369 172 369 Z M-171 372 C-171 382.56 -171 393.12 -171 404 C-170.67 404 -170.34 404 -170 404 C-170 393.44 -170 382.88 -170 372 C-170.33 372 -170.66 372 -171 372 Z M291 377 C292 379 292 379 292 379 Z M-288 378 C-287 380 -287 380 -287 380 Z M-289 381 C-288 383 -288 383 -288 383 Z M295 392 C296 395 296 395 296 395 Z M-170 405 C-170 407.64 -170 410.28 -170 413 C-169.67 413 -169.34 413 -169 413 C-169 410.36 -169 407.72 -169 405 C-169.33 405 -169.66 405 -170 405 Z M171 406 C171 408.64 171 411.28 171 414 C171.33 414 171.66 414 172 414 C172 411.36 172 408.72 172 406 C171.67 406 171.34 406 171 406 Z M298 406 C299 409 299 409 299 409 Z M-296 407 C-295 411 -295 411 -295 411 Z M299 410 C299 411.65 299 413.3 299 415 C299.33 415 299.66 415 300 415 C300 413.35 300 411.7 300 410 C299.67 410 299.34 410 299 410 Z M-297 412 C-296 416 -296 416 -296 416 Z M-169 414 C-169 415.98 -169 417.96 -169 420 C-168.67 420 -168.34 420 -168 420 C-168 418.02 -168 416.04 -168 414 C-168.33 414 -168.66 414 -169 414 Z M170 415 C170 416.65 170 418.3 170 420 C170.33 420 170.66 420 171 420 C171 418.35 171 416.7 171 415 C170.67 415 170.34 415 170 415 Z M300 416 C300 417.65 300 419.3 300 421 C300.33 421 300.66 421 301 421 C301 419.35 301 417.7 301 416 C300.67 416 300.34 416 300 416 Z M-298 417 C-297 421 -297 421 -297 421 Z M-168 421 C-167 425 -167 425 -167 425 Z M169 421 C170 425 170 425 170 425 Z M-299 422 C-299 423.65 -299 425.3 -299 427 C-298.67 427 -298.34 427 -298 427 C-298 425.35 -298 423.7 -298 422 C-298.33 422 -298.66 422 -299 422 Z M301 422 C301 424.31 301 426.62 301 429 C301.33 429 301.66 429 302 429 C302 426.69 302 424.38 302 422 C301.67 422 301.34 422 301 422 Z M168 426 C169 429 169 429 169 429 Z M-300 428 C-300 429.98 -300 431.96 -300 434 C-299.67 434 -299.34 434 -299 434 C-299 432.02 -299 430.04 -299 428 C-299.33 428 -299.66 428 -300 428 Z M302 430 C302 432.31 302 434.62 302 437 C302.33 437 302.66 437 303 437 C303 434.69 303 432.38 303 430 C302.67 430 302.34 430 302 430 Z M-301 435 C-301 437.31 -301 439.62 -301 442 C-300.67 442 -300.34 442 -300 442 C-300 439.69 -300 437.38 -300 435 C-300.33 435 -300.66 435 -301 435 Z M-164 438 C-163 440 -163 440 -163 440 Z M303 438 C303 441.63 303 445.26 303 449 C303.33 449 303.66 449 304 449 C304 445.37 304 441.74 304 438 C303.67 438 303.34 438 303 438 Z M-163 441 C-162 444 -162 444 -162 444 Z M164 442 C165 444 165 444 165 444 Z M-302 443 C-302 446.63 -302 450.26 -302 454 C-301.67 454 -301.34 454 -301 454 C-301 450.37 -301 446.74 -301 443 C-301.33 443 -301.66 443 -302 443 Z M-160 450 C-159 452 -159 452 -159 452 Z M304 450 C304 466.17 304 482.34 304 499 C304.33 499 304.66 499 305 499 C305 482.83 305 466.66 305 450 C304.67 450 304.34 450 304 450 Z M-303 455 C-303 469.85 -303 484.7 -303 500 C-302.67 500 -302.34 500 -302 500 C-302 485.15 -302 470.3 -302 455 C-302.33 455 -302.66 455 -303 455 Z M158 458 C159 460 159 460 159 460 Z M303 500 C303 503.3 303 506.6 303 510 C303.33 510 303.66 510 304 510 C304 506.7 304 503.4 304 500 C303.67 500 303.34 500 303 500 Z M-302 501 C-302 504.3 -302 507.6 -302 511 C-301.67 511 -301.34 511 -301 511 C-301 507.7 -301 504.4 -301 501 C-301.33 501 -301.66 501 -302 501 Z M302 511 C302 512.98 302 514.96 302 517 C302.33 517 302.66 517 303 517 C303 515.02 303 513.04 303 511 C302.67 511 302.34 511 302 511 Z M-301 512 C-301 513.98 -301 515.96 -301 518 C-300.67 518 -300.34 518 -300 518 C-300 516.02 -300 514.04 -300 512 C-300.33 512 -300.66 512 -301 512 Z M301 518 C301 520.31 301 522.62 301 525 C301.33 525 301.66 525 302 525 C302 522.69 302 520.38 302 518 C301.67 518 301.34 518 301 518 Z M-300 519 C-300 520.65 -300 522.3 -300 524 C-299.67 524 -299.34 524 -299 524 C-299 522.35 -299 520.7 -299 519 C-299.33 519 -299.66 519 -300 519 Z M-299 525 C-299 526.65 -299 528.3 -299 530 C-298.67 530 -298.34 530 -298 530 C-298 528.35 -298 526.7 -298 525 C-298.33 525 -298.66 525 -299 525 Z M300 526 C301 530 301 530 301 530 Z M-298 531 C-297 535 -297 535 -297 535 Z M299 531 C299 532.65 299 534.3 299 536 C299.33 536 299.66 536 300 536 C300 534.35 300 532.7 300 531 C299.67 531 299.34 531 299 531 Z M-297 536 C-296 540 -296 540 -296 540 Z M298 537 C299 540 299 540 299 540 Z M297 541 C298 545 298 545 298 545 Z M296 546 C297 549 297 549 297 549 Z M-294 550 C-293 553 -293 553 -293 553 Z M293 558 C294 560 294 560 294 560 Z M292 561 C293 564 293 564 293 564 Z M-290 564 C-289 567 -289 567 -289 567 Z M-289 568 C-288 570 -288 570 -288 570 Z M-288 571 C-287 573 -287 573 -287 573 Z M-287 574 C-286 576 -286 576 -286 576 Z M-282 587 C-281 589 -281 589 -281 589 Z M281 592 C282 594 282 594 282 594 Z M-277 599 C-276 601 -276 601 -276 601 Z M275 605 C276 607 276 607 276 607 Z M266 623 C267 625 267 625 267 625 Z " fill="#FF4C00" transform="translate(511,122)"/>
<path d="M0 0 C10.56 0 21.12 0 32 0 C32 0.33 32 0.66 32 1 C21.44 1 10.88 1 0 1 C0 0.67 0 0.34 0 0 Z " fill="#FF5100" transform="translate(496,682)"/>
<path d="M0 0 C9.9 0 19.8 0 30 0 C30 0.33 30 0.66 30 1 C20.1 1 10.2 1 0 1 C0 0.67 0 0.34 0 0 Z " fill="#FF2A00" transform="translate(497,903)"/>
<path d="M0 0 C0.33 0 0.66 0 1 0 C1 5.61 1 11.22 1 17 C0.67 17 0.34 17 0 17 C0 11.39 0 5.78 0 0 Z " fill="#FF3900" transform="translate(384,296)"/>
<path d="M0 0 C4.62 0 9.24 0 14 0 C14 0.33 14 0.66 14 1 C9.38 1 4.76 1 0 1 C0 0.67 0 0.34 0 0 Z " fill="#FF4400" transform="translate(527,902)"/>
<path d="M0 0 C4.29 0 8.58 0 13 0 C13 0.33 13 0.66 13 1 C8.71 1 4.42 1 0 1 C0 0.67 0 0.34 0 0 Z " fill="#FF4900" transform="translate(484,902)"/>
<path d="M0 0 C0.66 0.33 1.32 0.66 2 1 C0.35 2.65 -1.3 4.3 -3 6 C-3.66 5.67 -4.32 5.34 -5 5 C-3.35 3.35 -1.7 1.7 0 0 Z " fill="#FF3100" transform="translate(325,333)"/>
<path d="M0 0 C2.97 0 5.94 0 9 0 C9 0.33 9 0.66 9 1 C6.03 1 3.06 1 0 1 C0 0.67 0 0.34 0 0 Z " fill="#FF3600" transform="translate(541,901)"/>
<path d="M0 0 C2.97 0 5.94 0 9 0 C9 0.33 9 0.66 9 1 C6.03 1 3.06 1 0 1 C0 0.67 0 0.34 0 0 Z " fill="#FF4400" transform="translate(475,901)"/>
<path d="M0 0 C2.97 0 5.94 0 9 0 C9 0.33 9 0.66 9 1 C6.03 1 3.06 1 0 1 C0 0.67 0 0.34 0 0 Z " fill="#FF3600" transform="translate(528,681)"/>
<path d="M0 0 C2.64 0 5.28 0 8 0 C8 0.33 8 0.66 8 1 C5.36 1 2.72 1 0 1 C0 0.67 0 0.34 0 0 Z " fill="#FF4200" transform="translate(488,681)"/>
<path d="M0 0 C2.31 0 4.62 0 7 0 C7 0.33 7 0.66 7 1 C4.69 1 2.38 1 0 1 C0 0.67 0 0.34 0 0 Z " fill="#FF5100" transform="translate(468,900)"/>
<path d="M0 0 C2.31 0 4.62 0 7 0 C7 0.33 7 0.66 7 1 C4.69 1 2.38 1 0 1 C0 0.67 0 0.34 0 0 Z " fill="#FF4500" transform="translate(556,899)"/>
<path d="M0 0 C2.31 0 4.62 0 7 0 C7 0.33 7 0.66 7 1 C4.69 1 2.38 1 0 1 C0 0.67 0 0.34 0 0 Z " fill="#FF2D00" transform="translate(461,899)"/>
<path d="M0 0 C2.31 0 4.62 0 7 0 C7 0.33 7 0.66 7 1 C4.69 1 2.38 1 0 1 C0 0.67 0 0.34 0 0 Z " fill="#FF3300" transform="translate(481,680)"/>
<path d="M0 0 C1.98 0 3.96 0 6 0 C6 0.33 6 0.66 6 1 C4.02 1 2.04 1 0 1 C0 0.67 0 0.34 0 0 Z " fill="#FF4D00" transform="translate(550,900)"/>
<path d="M0 0 C1.98 0 3.96 0 6 0 C6 0.33 6 0.66 6 1 C4.02 1 2.04 1 0 1 C0 0.67 0 0.34 0 0 Z " fill="#FF3100" transform="translate(455,898)"/>
<path d="M0 0 C1.98 0.99 1.98 0.99 4 2 C3.01 2 2.02 2 1 2 C0.67 1.34 0.34 0.68 0 0 Z " fill="#FF3100" transform="translate(305,822)"/>
<path d="M0 0 C1.98 0 3.96 0 6 0 C6 0.33 6 0.66 6 1 C4.02 1 2.04 1 0 1 C0 0.67 0 0.34 0 0 Z " fill="#FF5100" transform="translate(537,680)"/>
<path d="M0 0 C1.65 0 3.3 0 5 0 C5 0.33 5 0.66 5 1 C3.35 1 1.7 1 0 1 C0 0.67 0 0.34 0 0 Z " fill="#FF4300" transform="translate(563,898)"/>
<path d="M0 0 C1.65 0 3.3 0 5 0 C5 0.33 5 0.66 5 1 C3.35 1 1.7 1 0 1 C0 0.67 0 0.34 0 0 Z " fill="#FF6100" transform="translate(568,897)"/>
<path d="M0 0 C1.65 0 3.3 0 5 0 C5 0.33 5 0.66 5 1 C3.35 1 1.7 1 0 1 C0 0.67 0 0.34 0 0 Z " fill="#FF2A00" transform="translate(573,896)"/>
<path d="M0 0 C1.65 0 3.3 0 5 0 C5 0.33 5 0.66 5 1 C3.35 1 1.7 1 0 1 C0 0.67 0 0.34 0 0 Z " fill="#FF4800" transform="translate(446,896)"/>
<path d="M0 0 C1.65 0 3.3 0 5 0 C5 0.33 5 0.66 5 1 C3.35 1 1.7 1 0 1 C0 0.67 0 0.34 0 0 Z " fill="#FF3B00" transform="translate(437,894)"/>
<path d="M0 0 C1.65 0 3.3 0 5 0 C5 0.33 5 0.66 5 1 C3.35 1 1.7 1 0 1 C0 0.67 0 0.34 0 0 Z " fill="#FF3B00" transform="translate(586,893)"/>
<path d="M0 0 C1.65 0 3.3 0 5 0 C5 0.33 5 0.66 5 1 C3.35 1 1.7 1 0 1 C0 0.67 0 0.34 0 0 Z " fill="#FF4300" transform="translate(476,679)"/>
<path d="M0 0 C1.65 0 3.3 0 5 0 C5 0.33 5 0.66 5 1 C3.35 1 1.7 1 0 1 C0 0.67 0 0.34 0 0 Z " fill="#FF3700" transform="translate(547,678)"/>
<path d="M0 0 C1.65 0 3.3 0 5 0 C5 0.33 5 0.66 5 1 C3.35 1 1.7 1 0 1 C0 0.67 0 0.34 0 0 Z " fill="#FF2E00" transform="translate(471,678)"/>
<path d="M0 0 C4 1 4 1 4 1 Z " fill="#FF4F00" transform="translate(451,897)"/>
<path d="M0 0 C4 1 4 1 4 1 Z " fill="#FF5A00" transform="translate(578,895)"/>
<path d="M0 0 C4 1 4 1 4 1 Z " fill="#FF3F00" transform="translate(442,895)"/>
<path d="M0 0 C4 1 4 1 4 1 Z " fill="#FF1F00" transform="translate(582,894)"/>
<path d="M0 0 C4 1 4 1 4 1 Z " fill="#FF2F00" transform="translate(430,892)"/>
<path d="M0 0 C4 1 4 1 4 1 Z " fill="#FF2F00" transform="translate(597,890)"/>
<path d="M0 0 C4 1 4 1 4 1 Z " fill="#FF4A00" transform="translate(423,890)"/>
<path d="M0 0 C0.99 0.33 1.98 0.66 3 1 C2.01 1 1.02 1 0 1 C0 0.67 0 0.34 0 0 Z " fill="#FF2200" transform="translate(314,830)"/>
<path d="M0 0 C1 4 1 4 1 4 Z " fill="#FF2F00" transform="translate(218,679)"/>
<path d="M0 0 C4 1 4 1 4 1 Z " fill="#FF4400" transform="translate(543,679)"/>
<path d="M0 0 C4 1 4 1 4 1 Z " fill="#FF4F00" transform="translate(552,677)"/>
<path d="M0 0 C1 4 1 4 1 4 Z " fill="#FF4400" transform="translate(806,675)"/>
<path d="M0 0 C4 1 4 1 4 1 Z " fill="#FF4400" transform="translate(464,676)"/>
<path d="M0 0 C4 1 4 1 4 1 Z " fill="#FF2A00" transform="translate(559,675)"/>
<path d="M0 0 C1 4 1 4 1 4 Z " fill="#FF4400" transform="translate(215,667)"/>
<path d="M0 0 C0.99 0.33 1.98 0.66 3 1 C2.01 1 1.02 1 0 1 C0 0.67 0 0.34 0 0 Z " fill="#FF3F00" transform="translate(398,640)"/>
<path d="M0 0 C0 3 0 3 0 3 Z " fill="#FF3C00" transform="translate(646,617)"/>
<path d="M0 0 C1 4 1 4 1 4 Z " fill="#FF4400" transform="translate(677,552)"/>
<path d="M0 0 C1 4 1 4 1 4 Z " fill="#FF4400" transform="translate(346,552)"/>
<path d="M0 0 C1 4 1 4 1 4 Z " fill="#FF5A00" transform="translate(345,548)"/>
<path d="M0 0 C1 4 1 4 1 4 Z " fill="#FF5A00" transform="translate(808,518)"/>
<path d="M0 0 C1 4 1 4 1 4 Z " fill="#FF4400" transform="translate(219,509)"/>
<path d="M0 0 C1 4 1 4 1 4 Z " fill="#FF4400" transform="translate(804,502)"/>
<path d="M0 0 C1 4 1 4 1 4 Z " fill="#FF4F00" transform="translate(346,459)"/>
<path d="M0 0 C1 4 1 4 1 4 Z " fill="#FF3A00" transform="translate(674,437)"/>
<path d="M0 0 C1 4 1 4 1 4 Z " fill="#FF4400" transform="translate(673,433)"/>
<path d="M0 0 C1 4 1 4 1 4 Z " fill="#FF2500" transform="translate(672,429)"/>
<path d="M0 0 C1 4 1 4 1 4 Z " fill="#FF3A00" transform="translate(671,425)"/>
<path d="M0 0 C1 4 1 4 1 4 Z " fill="#FF2500" transform="translate(669,418)"/>
<path d="M0 0 C1 4 1 4 1 4 Z " fill="#FF4400" transform="translate(377,353)"/>
<path d="M0 0 C0.66 0.33 1.32 0.66 2 1 C1.01 1 0.02 1 -1 1 C-0.67 0.67 -0.34 0.34 0 0 Z " fill="#FF3500" transform="translate(333,326)"/>
<path d="M0 0 C3 1 3 1 3 1 Z " fill="#FF5B00" transform="translate(434,893)"/>
<path d="M0 0 C3 1 3 1 3 1 Z " fill="#FF3100" transform="translate(591,892)"/>
<path d="M0 0 C3 1 3 1 3 1 Z " fill="#FF6900" transform="translate(594,891)"/>
<path d="M0 0 C3 1 3 1 3 1 Z " fill="#FF3F00" transform="translate(427,891)"/>
<path d="M0 0 C3 1 3 1 3 1 Z " fill="#FF3F00" transform="translate(601,889)"/>
<path d="M0 0 C3 1 3 1 3 1 Z " fill="#FF3800" transform="translate(420,889)"/>
<path d="M0 0 C3 1 3 1 3 1 Z " fill="#FF3800" transform="translate(604,888)"/>
<path d="M0 0 C3 1 3 1 3 1 Z " fill="#FF3800" transform="translate(417,888)"/>
<path d="M0 0 C3 1 3 1 3 1 Z " fill="#FF3800" transform="translate(607,887)"/>
<path d="M0 0 C3 1 3 1 3 1 Z " fill="#FF3F00" transform="translate(414,887)"/>
<path d="M0 0 C3 1 3 1 3 1 Z " fill="#FF3800" transform="translate(610,886)"/>
<path d="M0 0 C3 1 3 1 3 1 Z " fill="#FF1500" transform="translate(411,886)"/>
<path d="M0 0 C3 1 3 1 3 1 Z " fill="#FF3800" transform="translate(613,885)"/>
<path d="M0 0 C3 1 3 1 3 1 Z " fill="#FF3100" transform="translate(616,884)"/>
<path d="M0 0 C3 1 3 1 3 1 Z " fill="#FF3F00" transform="translate(406,884)"/>
<path d="M0 0 C3 1 3 1 3 1 Z " fill="#FF3F00" transform="translate(403,883)"/>
<path d="M0 0 C3 1 3 1 3 1 Z " fill="#FF3F00" transform="translate(621,882)"/>
<path d="M0 0 C3 1 3 1 3 1 Z " fill="#FF3F00" transform="translate(398,881)"/>
<path d="M0 0 C3 1 3 1 3 1 Z " fill="#FF4600" transform="translate(626,880)"/>
<path d="M0 0 C3 1 3 1 3 1 Z " fill="#FF3F00" transform="translate(393,879)"/>
<path d="M0 0 C3 1 3 1 3 1 Z " fill="#FF1C00" transform="translate(633,877)"/>
<path d="M0 0 C3 1 3 1 3 1 Z " fill="#FF1C00" transform="translate(388,877)"/>
<path d="" fill="#FF3F00" transform="translate(0,0)"/>
<path d="" fill="#FF3800" transform="translate(0,0)"/>
<path d="" fill="#FF3F00" transform="translate(0,0)"/>
<path d="" fill="#FF3800" transform="translate(0,0)"/>
<path d="" fill="#FF3F00" transform="translate(0,0)"/>
<path d="" fill="#FF3F00" transform="translate(0,0)"/>
<path d="" fill="#FF3F00" transform="translate(0,0)"/>
<path d="M0 0 C3 1 3 1 3 1 Z " fill="#FF5400" transform="translate(468,677)"/>
<path d="M0 0 C3 1 3 1 3 1 Z " fill="#FF3100" transform="translate(556,676)"/>
<path d="M0 0 C3 1 3 1 3 1 Z " fill="#FF3800" transform="translate(461,675)"/>
<path d="M0 0 C3 1 3 1 3 1 Z " fill="#FF3800" transform="translate(563,674)"/>
<path d="M0 0 C3 1 3 1 3 1 Z " fill="#FF3800" transform="translate(458,674)"/>
<path d="M0 0 C3 1 3 1 3 1 Z " fill="#FF3800" transform="translate(566,673)"/>
<path d="M0 0 C3 1 3 1 3 1 Z " fill="#FF4600" transform="translate(455,673)"/>
<path d="M0 0 C3 1 3 1 3 1 Z " fill="#FF4600" transform="translate(569,672)"/>
<path d="M0 0 C3 1 3 1 3 1 Z " fill="#FF3F00" transform="translate(452,672)"/>
<path d="M0 0 C3 1 3 1 3 1 Z " fill="#FF1500" transform="translate(572,671)"/>
<path d="M0 0 C3 1 3 1 3 1 Z " fill="#FF1500" transform="translate(449,671)"/>
<path d="M0 0 C3 1 3 1 3 1 Z " fill="#FF1500" transform="translate(444,669)"/>
<path d="M0 0 C3 1 3 1 3 1 Z " fill="#FF3800" transform="translate(579,668)"/>
<path d="" fill="#FF3800" transform="translate(0,0)"/>
<path d="" fill="#FF3800" transform="translate(0,0)"/>
<path d="" fill="#FF3800" transform="translate(0,0)"/>
<path d="" fill="#FF4600" transform="translate(0,0)"/>
<path d="" fill="#FF3F00" transform="translate(0,0)"/>
<path d="" fill="#FF3800" transform="translate(0,0)"/>
<path d="" fill="#FF3800" transform="translate(0,0)"/>
<path d="" fill="#FF3800" transform="translate(0,0)"/>
<path d="" fill="#FF4600" transform="translate(0,0)"/>
<path d="" fill="#FF3100" transform="translate(0,0)"/>
<path d="" fill="#FF3100" transform="translate(0,0)"/>
<path d="" fill="#FF3800" transform="translate(0,0)"/>
<path d="" fill="#FF3800" transform="translate(0,0)"/>
<path d="" fill="#FF3800" transform="translate(0,0)"/>
<path d="" fill="#FF3800" transform="translate(0,0)"/>
<path d="" fill="#FF3800" transform="translate(0,0)"/>
<path d="" fill="#FF3800" transform="translate(0,0)"/>
<path d="" fill="#FF3100" transform="translate(0,0)"/>
<path d="M0 0 C0.66 0 1.32 0 2 0 C1.67 0.66 1.34 1.32 1 2 C0.67 1.34 0.34 0.68 0 0 Z " fill="#FF2600" transform="translate(688,315)"/>
<path d="M0 0 C3 1 3 1 3 1 Z " fill="#FF4600" transform="translate(380,294)"/>
<path d="M0 0 C0.66 0 1.32 0 2 0 C1.67 0.66 1.34 1.32 1 2 C0.67 1.34 0.34 0.68 0 0 Z " fill="#FF2A00" transform="translate(625,249)"/>
<path d="" fill="#FF4600" transform="translate(0,0)"/>
<path d="M0 0 C2 1 2 1 2 1 Z " fill="#FF5F00" transform="translate(409,885)"/>
<path d="M0 0 C2 1 2 1 2 1 Z " fill="#FF5F00" transform="translate(619,883)"/>
<path d="M0 0 C2 1 2 1 2 1 Z " fill="#FF2A00" transform="translate(401,882)"/>
<path d="M0 0 C2 1 2 1 2 1 Z " fill="#FF4A00" transform="translate(624,881)"/>
<path d="M0 0 C2 1 2 1 2 1 Z " fill="#FF3F00" transform="translate(396,880)"/>
<path d="M0 0 C2 1 2 1 2 1 Z " fill="#FF2A00" transform="translate(629,879)"/>
<path d="M0 0 C2 1 2 1 2 1 Z " fill="#FF5500" transform="translate(631,878)"/>
<path d="M0 0 C2 1 2 1 2 1 Z " fill="#FF6A00" transform="translate(391,878)"/>
<path d="M0 0 C2 1 2 1 2 1 Z " fill="#FF2A00" transform="translate(636,876)"/>
<path d="M0 0 C2 1 2 1 2 1 Z " fill="#FF2A00" transform="translate(386,876)"/>
<path d="M0 0 C2 1 2 1 2 1 Z " fill="#FF2A00" transform="translate(638,875)"/>
<path d="M0 0 C2 1 2 1 2 1 Z " fill="#FF5F00" transform="translate(384,875)"/>
<path d="M0 0 C2 1 2 1 2 1 Z " fill="#FF2A00" transform="translate(640,874)"/>
<path d="M0 0 C2 1 2 1 2 1 Z " fill="#FF1F00" transform="translate(382,874)"/>
<path d="M0 0 C2 1 2 1 2 1 Z " fill="#FF7F00" transform="translate(642,873)"/>
<path d="M0 0 C2 1 2 1 2 1 Z " fill="#FF5500" transform="translate(380,873)"/>
<path d="M0 0 C2 1 2 1 2 1 Z " fill="#FF6A00" transform="translate(644,872)"/>
<path d="M0 0 C2 1 2 1 2 1 Z " fill="#FF6A00" transform="translate(378,872)"/>
<path d="M0 0 C2 1 2 1 2 1 Z " fill="#FF6A00" transform="translate(646,871)"/>
<path d="M0 0 C2 1 2 1 2 1 Z " fill="#FF5500" transform="translate(376,871)"/>
<path d="M0 0 C2 1 2 1 2 1 Z " fill="#FF3F00" transform="translate(648,870)"/>
<path d="M0 0 C2 1 2 1 2 1 Z " fill="#FF3F00" transform="translate(374,870)"/>
<path d="M0 0 C2 1 2 1 2 1 Z " fill="#FF6A00" transform="translate(650,869)"/>
<path d="M0 0 C2 1 2 1 2 1 Z " fill="#FF6A00" transform="translate(372,869)"/>
<path d="M0 0 C2 1 2 1 2 1 Z " fill="#FF1F00" transform="translate(652,868)"/>
<path d="M0 0 C2 1 2 1 2 1 Z " fill="#FF2A00" transform="translate(370,868)"/>
<path d="M0 0 C2 1 2 1 2 1 Z " fill="#FF2A00" transform="translate(654,867)"/>
<path d="M0 0 C2 1 2 1 2 1 Z " fill="#FF1F00" transform="translate(368,867)"/>
<path d="M0 0 C2 1 2 1 2 1 Z " fill="#FF2A00" transform="translate(656,866)"/>
<path d="M0 0 C2 1 2 1 2 1 Z " fill="#FF2A00" transform="translate(366,866)"/>
<path d="M0 0 C2 1 2 1 2 1 Z " fill="#FF2A00" transform="translate(658,865)"/>
<path d="M0 0 C2 1 2 1 2 1 Z " fill="#FF2A00" transform="translate(364,865)"/>
<path d="M0 0 C2 1 2 1 2 1 Z " fill="#FF3F00" transform="translate(661,863)"/>
<path d="M0 0 C2 1 2 1 2 1 Z " fill="#FF0000" transform="translate(361,863)"/>
<path d="M0 0 C2 1 2 1 2 1 Z " fill="#FF1F00" transform="translate(663,862)"/>
<path d="M0 0 C2 1 2 1 2 1 Z " fill="#FF1F00" transform="translate(359,862)"/>
<path d="M0 0 C2 1 2 1 2 1 Z " fill="#FF6A00" transform="translate(666,860)"/>
<path d="M0 0 C2 1 2 1 2 1 Z " fill="#FF6A00" transform="translate(356,860)"/>
<path d="M0 0 C2 1 2 1 2 1 Z " fill="#FF2A00" transform="translate(668,859)"/>
<path d="M0 0 C2 1 2 1 2 1 Z " fill="#FF7F00" transform="translate(354,859)"/>
<path d="M0 0 C2 1 2 1 2 1 Z " fill="#FF5F00" transform="translate(671,857)"/>
<path d="M0 0 C2 1 2 1 2 1 Z " fill="#FF6A00" transform="translate(351,857)"/>
<path d="M0 0 C2 1 2 1 2 1 Z " fill="#FF2A00" transform="translate(673,856)"/>
<path d="M0 0 C2 1 2 1 2 1 Z " fill="#FF2A00" transform="translate(349,856)"/>
<path d="M0 0 C2 1 2 1 2 1 Z " fill="#FF1F00" transform="translate(676,854)"/>
<path d="M0 0 C2 1 2 1 2 1 Z " fill="#FF1F00" transform="translate(346,854)"/>
<path d="M0 0 C2 1 2 1 2 1 Z " fill="#FF3F00" transform="translate(679,852)"/>
<path d="M0 0 C2 1 2 1 2 1 Z " fill="#FF1F00" transform="translate(343,852)"/>
<path d="M0 0 C2 1 2 1 2 1 Z " fill="#FF1F00" transform="translate(682,850)"/>
<path d="M0 0 C2 1 2 1 2 1 Z " fill="#FF1F00" transform="translate(340,850)"/>
<path d="M0 0 C2 1 2 1 2 1 Z " fill="#FF7F00" transform="translate(336,847)"/>
<path d="M0 0 C2 1 2 1 2 1 Z " fill="#FF1F00" transform="translate(689,845)"/>
<path d="M0 0 C2 1 2 1 2 1 Z " fill="#FF2A00" transform="translate(693,842)"/>
<path d="M0 0 C2 1 2 1 2 1 Z " fill="#FF3F00" transform="translate(329,842)"/>
<path d="M0 0 C2 1 2 1 2 1 Z " fill="#FF1900" transform="translate(697,839)"/>
<path d="M0 0 C2 1 2 1 2 1 Z " fill="#FF3F00" transform="translate(325,839)"/>
<path d="M0 0 C2 1 2 1 2 1 Z " fill="#FF3F00" transform="translate(320,835)"/>
<path d="" fill="#FF6A00" transform="translate(0,0)"/>
<path d="" fill="#FF6A00" transform="translate(0,0)"/>
<path d="" fill="#FF6A00" transform="translate(0,0)"/>
<path d="" fill="#FF6A00" transform="translate(0,0)"/>
<path d="" fill="#FF5500" transform="translate(0,0)"/>
<path d="" fill="#FF5500" transform="translate(0,0)"/>
<path d="" fill="#FF5500" transform="translate(0,0)"/>
<path d="M0 0 C2 1 2 1 2 1 Z " fill="#FF5500" transform="translate(575,670)"/>
<path d="M0 0 C2 1 2 1 2 1 Z " fill="#FF6A00" transform="translate(447,670)"/>
<path d="M0 0 C2 1 2 1 2 1 Z " fill="#FF1F00" transform="translate(577,669)"/>
<path d="M0 0 C2 1 2 1 2 1 Z " fill="#FF5500" transform="translate(442,668)"/>
<path d="M0 0 C2 1 2 1 2 1 Z " fill="#FF5500" transform="translate(582,667)"/>
<path d="M0 0 C2 1 2 1 2 1 Z " fill="#FF6A00" transform="translate(440,667)"/>
<path d="M0 0 C2 1 2 1 2 1 Z " fill="#FF2A00" transform="translate(584,666)"/>
<path d="M0 0 C2 1 2 1 2 1 Z " fill="#FF1F00" transform="translate(438,666)"/>
<path d="M0 0 C2 1 2 1 2 1 Z " fill="#FF2A00" transform="translate(586,665)"/>
<path d="M0 0 C2 1 2 1 2 1 Z " fill="#FF2A00" transform="translate(436,665)"/>
<path d="M0 0 C2 1 2 1 2 1 Z " fill="#FF1F00" transform="translate(588,664)"/>
<path d="M0 0 C2 1 2 1 2 1 Z " fill="#FF2A00" transform="translate(434,664)"/>
<path d="M0 0 C2 1 2 1 2 1 Z " fill="#FF2A00" transform="translate(590,663)"/>
<path d="M0 0 C2 1 2 1 2 1 Z " fill="#FF1F00" transform="translate(432,663)"/>
<path d="M0 0 C2 1 2 1 2 1 Z " fill="#FF5F00" transform="translate(592,662)"/>
<path d="M0 0 C2 1 2 1 2 1 Z " fill="#FF6A00" transform="translate(430,662)"/>
<path d="M0 0 C2 1 2 1 2 1 Z " fill="#FF2A00" transform="translate(594,661)"/>
<path d="M0 0 C2 1 2 1 2 1 Z " fill="#FF7F00" transform="translate(428,661)"/>
<path d="M0 0 C2 1 2 1 2 1 Z " fill="#FF5F00" transform="translate(596,660)"/>
<path d="M0 0 C2 1 2 1 2 1 Z " fill="#FFAA00" transform="translate(426,660)"/>
<path d="M0 0 C2 1 2 1 2 1 Z " fill="#FF2A00" transform="translate(599,658)"/>
<path d="M0 0 C2 1 2 1 2 1 Z " fill="#FF1F00" transform="translate(423,658)"/>
<path d="M0 0 C2 1 2 1 2 1 Z " fill="#FF6A00" transform="translate(601,657)"/>
<path d="M0 0 C2 1 2 1 2 1 Z " fill="#FF2A00" transform="translate(421,657)"/>
<path d="M0 0 C2 1 2 1 2 1 Z " fill="#FF3F00" transform="translate(604,655)"/>
<path d="M0 0 C2 1 2 1 2 1 Z " fill="#FF5F00" transform="translate(418,655)"/>
<path d="M0 0 C2 1 2 1 2 1 Z " fill="#FF1F00" transform="translate(607,653)"/>
<path d="M0 0 C2 1 2 1 2 1 Z " fill="#FF1F00" transform="translate(415,653)"/>
<path d="M0 0 C2 1 2 1 2 1 Z " fill="#FF2A00" transform="translate(610,651)"/>
<path d="M0 0 C2 1 2 1 2 1 Z " fill="#FF2A00" transform="translate(412,651)"/>
<path d="M0 0 C2 1 2 1 2 1 Z " fill="#FF7F00" transform="translate(613,649)"/>
<path d="M0 0 C2 1 2 1 2 1 Z " fill="#FF7F00" transform="translate(409,649)"/>
<path d="M0 0 C2 1 2 1 2 1 Z " fill="#FF2A00" transform="translate(405,646)"/>
<path d="" fill="#FF6A00" transform="translate(0,0)"/>
<path d="" fill="#FF2A00" transform="translate(0,0)"/>
<path d="" fill="#FF5500" transform="translate(0,0)"/>
<path d="" fill="#FF6A00" transform="translate(0,0)"/>
<path d="" fill="#FF6A00" transform="translate(0,0)"/>
<path d="" fill="#FF2A00" transform="translate(0,0)"/>
<path d="" fill="#FF5500" transform="translate(0,0)"/>
<path d="" fill="#FF6A00" transform="translate(0,0)"/>
<path d="" fill="#FF6A00" transform="translate(0,0)"/>
<path d="" fill="#FF6A00" transform="translate(0,0)"/>
<path d="" fill="#FF6A00" transform="translate(0,0)"/>
<path d="" fill="#FF6A00" transform="translate(0,0)"/>
<path d="" fill="#FF5500" transform="translate(0,0)"/>
<path d="" fill="#FF6A00" transform="translate(0,0)"/>
<path d="" fill="#FF6A00" transform="translate(0,0)"/>
<path d="" fill="#FF6A00" transform="translate(0,0)"/>
<path d="" fill="#FF5500" transform="translate(0,0)"/>
<path d="" fill="#FF4A00" transform="translate(0,0)"/>
<path d="" fill="#FF6A00" transform="translate(0,0)"/>
<path d="" fill="#FF5F00" transform="translate(0,0)"/>
<path d="" fill="#FF6A00" transform="translate(0,0)"/>
<path d="" fill="#FF6A00" transform="translate(0,0)"/>
<path d="" fill="#FF6A00" transform="translate(0,0)"/>
<path d="" fill="#FF6A00" transform="translate(0,0)"/>
<path d="" fill="#FF5500" transform="translate(0,0)"/>
<path d="M0 0 C2 1 2 1 2 1 Z " fill="#FF3F00" transform="translate(339,321)"/>
<path d="M0 0 C2 1 2 1 2 1 Z " fill="#FF3F00" transform="translate(344,317)"/>
<path d="M0 0 C2 1 2 1 2 1 Z " fill="#FF1F00" transform="translate(349,313)"/>
<path d="M0 0 C2 1 2 1 2 1 Z " fill="#FF2A00" transform="translate(352,311)"/>
<path d="M0 0 C2 1 2 1 2 1 Z " fill="#FF7F00" transform="translate(355,309)"/>
<path d="M0 0 C2 1 2 1 2 1 Z " fill="#FF1F00" transform="translate(359,306)"/>
<path d="M0 0 C2 1 2 1 2 1 Z " fill="#FF2A00" transform="translate(362,304)"/>
<path d="M0 0 C2 1 2 1 2 1 Z " fill="#FF6A00" transform="translate(364,303)"/>
<path d="M0 0 C2 1 2 1 2 1 Z " fill="#FF6A00" transform="translate(367,301)"/>
<path d="M0 0 C2 1 2 1 2 1 Z " fill="#FF1F00" transform="translate(370,299)"/>
<path d="M0 0 C2 1 2 1 2 1 Z " fill="#FF3F00" transform="translate(372,298)"/>
<path d="M0 0 C2 1 2 1 2 1 Z " fill="#FF6A00" transform="translate(374,297)"/>
<path d="M0 0 C2 1 2 1 2 1 Z " fill="#FF7F00" transform="translate(376,296)"/>
<path d="M0 0 C2 1 2 1 2 1 Z " fill="#FF2A00" transform="translate(378,295)"/>
<path d="" fill="#FF6A00" transform="translate(0,0)"/>
<path d="" fill="#FF5500" transform="translate(0,0)"/>
<path d="" fill="#FF5500" transform="translate(0,0)"/>
<path d="" fill="#FF5500" transform="translate(0,0)"/>
<path d="" fill="#FF5500" transform="translate(0,0)"/>
<path d="" fill="#FF5500" transform="translate(0,0)"/>
<path d="" fill="#FF5500" transform="translate(0,0)"/>
<path d="" fill="#FF5500" transform="translate(0,0)"/>
<path d="" fill="#FF7F00" transform="translate(0,0)"/>
<path d="" fill="#FF5500" transform="translate(0,0)"/>
<path d="" fill="#FF5500" transform="translate(0,0)"/>
<path d="" fill="#FF5500" transform="translate(0,0)"/>
<path d="" fill="#FF3F00" transform="translate(0,0)"/>
<path d="" fill="#FF5500" transform="translate(0,0)"/>
<path d="" fill="#FF7F00" transform="translate(0,0)"/>
<path d="" fill="#FF5500" transform="translate(0,0)"/>
<path d="" fill="#FF3F00" transform="translate(0,0)"/>
<path d="" fill="#FF5500" transform="translate(0,0)"/>
<path d="" fill="#FF5500" transform="translate(0,0)"/>
<path d="" fill="#FF7F00" transform="translate(0,0)"/>
<path d="" fill="#FF3F00" transform="translate(0,0)"/>
<path d="" fill="#FF5500" transform="translate(0,0)"/>
<path d="" fill="#FF7F00" transform="translate(0,0)"/>
<path d="" fill="#FF5500" transform="translate(0,0)"/>
<path d="" fill="#FF3F00" transform="translate(0,0)"/>
<path d="" fill="#FF3F00" transform="translate(0,0)"/>
<path d="" fill="#FF7F00" transform="translate(0,0)"/>
<path d="" fill="#FF5500" transform="translate(0,0)"/>
<path d="" fill="#FF5500" transform="translate(0,0)"/>
<path d="" fill="#FF3F00" transform="translate(0,0)"/>
<path d="" fill="#FF5500" transform="translate(0,0)"/>
<path d="" fill="#FF3F00" transform="translate(0,0)"/>
<path d="" fill="#FF5500" transform="translate(0,0)"/>
<path d="" fill="#FF5500" transform="translate(0,0)"/>
<path d="" fill="#FF3F00" transform="translate(0,0)"/>
<path d="" fill="#FF5500" transform="translate(0,0)"/>
<path d="" fill="#FF3F00" transform="translate(0,0)"/>
<path d="" fill="#FF5500" transform="translate(0,0)"/>
<path d="" fill="#FF5500" transform="translate(0,0)"/>
<path d="" fill="#FF5500" transform="translate(0,0)"/>
<path d="" fill="#FF5500" transform="translate(0,0)"/>
<path d="" fill="#FF5500" transform="translate(0,0)"/>
<path d="" fill="#FF3300" transform="translate(0,0)"/>
<path d="" fill="#FF3F00" transform="translate(0,0)"/>
<path d="" fill="#FF3F00" transform="translate(0,0)"/>
<path d="" fill="#FF3F00" transform="translate(0,0)"/>
<path d="" fill="#FF3300" transform="translate(0,0)"/>
<path d="" fill="#FF0000" transform="translate(0,0)"/>
<path d="" fill="#FF7F00" transform="translate(0,0)"/>
<path d="" fill="#FF0000" transform="translate(0,0)"/>
<path d="" fill="#FF5500" transform="translate(0,0)"/>
<path d="" fill="#FF5500" transform="translate(0,0)"/>
<path d="" fill="#FF5500" transform="translate(0,0)"/>
<path d="" fill="#FF7F00" transform="translate(0,0)"/>
<path d="" fill="#FF5500" transform="translate(0,0)"/>
<path d="" fill="#FF3F00" transform="translate(0,0)"/>
<path d="" fill="#FF3F00" transform="translate(0,0)"/>
<path d="" fill="#FF3F00" transform="translate(0,0)"/>
<path d="" fill="#FF3F00" transform="translate(0,0)"/>
<path d="" fill="#FF5500" transform="translate(0,0)"/>
<path d="" fill="#FF3F00" transform="translate(0,0)"/>
<path d="" fill="#FF3F00" transform="translate(0,0)"/>
<path d="" fill="#FF3F00" transform="translate(0,0)"/>
<path d="" fill="#FF3F00" transform="translate(0,0)"/>
<path d="" fill="#FF3F00" transform="translate(0,0)"/>
<path d="" fill="#FF3F00" transform="translate(0,0)"/>
<path d="" fill="#FF5500" transform="translate(0,0)"/>
<path d="" fill="#FF3F00" transform="translate(0,0)"/>
<path d="" fill="#FF5500" transform="translate(0,0)"/>
<path d="" fill="#FF3F00" transform="translate(0,0)"/>
<path d="" fill="#FF3F00" transform="translate(0,0)"/>
<path d="" fill="#FF5500" transform="translate(0,0)"/>
<path d="" fill="#FF7F00" transform="translate(0,0)"/>
<path d="" fill="#FF3F00" transform="translate(0,0)"/>
<path d="" fill="#FF5500" transform="translate(0,0)"/>
<path d="" fill="#FF7F00" transform="translate(0,0)"/>
<path d="" fill="#FF7F00" transform="translate(0,0)"/>
<path d="" fill="#FF5500" transform="translate(0,0)"/>
<path d="" fill="#FF7F00" transform="translate(0,0)"/>
<path d="" fill="#FF3F00" transform="translate(0,0)"/>
<path d="" fill="#FF3F00" transform="translate(0,0)"/>
<path d="" fill="#FF3300" transform="translate(0,0)"/>
<path d="" fill="#FF3F00" transform="translate(0,0)"/>
<path d="" fill="#FF3F00" transform="translate(0,0)"/>
<path d="" fill="#FF7F00" transform="translate(0,0)"/>
<path d="" fill="#FF5500" transform="translate(0,0)"/>
<path d="" fill="#FF3F00" transform="translate(0,0)"/>
<path d="" fill="#FF3F00" transform="translate(0,0)"/>
<path d="" fill="#FF5500" transform="translate(0,0)"/>
<path d="" fill="#FF3F00" transform="translate(0,0)"/>
<path d="" fill="#FF3F00" transform="translate(0,0)"/>
<path d="" fill="#FF3F00" transform="translate(0,0)"/>
<path d="" fill="#FF5500" transform="translate(0,0)"/>
<path d="" fill="#FF3F00" transform="translate(0,0)"/>
<path d="" fill="#FF5500" transform="translate(0,0)"/>
<path d="" fill="#FF3F00" transform="translate(0,0)"/>
<path d="" fill="#FF5500" transform="translate(0,0)"/>
<path d="" fill="#FF5500" transform="translate(0,0)"/>
<path d="" fill="#FF3F00" transform="translate(0,0)"/>
<path d="" fill="#FF3F00" transform="translate(0,0)"/>
<path d="" fill="#FF5500" transform="translate(0,0)"/>
<path d="" fill="#FF5500" transform="translate(0,0)"/>
<path d="" fill="#FF5500" transform="translate(0,0)"/>
<path d="" fill="#FF5500" transform="translate(0,0)"/>
<path d="" fill="#FF5500" transform="translate(0,0)"/>
<path d="" fill="#FF5500" transform="translate(0,0)"/>
<path d="" fill="#FF5500" transform="translate(0,0)"/>
<path d="" fill="#FF5500" transform="translate(0,0)"/>
<path d="" fill="#FF3F00" transform="translate(0,0)"/>
<path d="" fill="#FF5500" transform="translate(0,0)"/>
<path d="" fill="#FF3F00" transform="translate(0,0)"/>
<path d="" fill="#FF3F00" transform="translate(0,0)"/>
<path d="" fill="#FF5500" transform="translate(0,0)"/>
<path d="" fill="#FF3F00" transform="translate(0,0)"/>
<path d="" fill="#FF3300" transform="translate(0,0)"/>
<path d="" fill="#FF5500" transform="translate(0,0)"/>
<path d="" fill="#FF3F00" transform="translate(0,0)"/>
<path d="" fill="#FF5500" transform="translate(0,0)"/>
<path d="" fill="#FF3F00" transform="translate(0,0)"/>
<path d="" fill="#FF5500" transform="translate(0,0)"/>
<path d="" fill="#FF5500" transform="translate(0,0)"/>
<path d="" fill="#FF3300" transform="translate(0,0)"/>
<path d="" fill="#FF3300" transform="translate(0,0)"/>
<path d="" fill="#FF3F00" transform="translate(0,0)"/>
<path d="" fill="#FF3300" transform="translate(0,0)"/>
<path d="" fill="#FF5500" transform="translate(0,0)"/>
<path d="" fill="#FF3F00" transform="translate(0,0)"/>
<path d="" fill="#FF3F00" transform="translate(0,0)"/>
<path d="" fill="#FF3F00" transform="translate(0,0)"/>
<path d="" fill="#FF3F00" transform="translate(0,0)"/>
<path d="" fill="#FF3F00" transform="translate(0,0)"/>
<path d="" fill="#FF3F00" transform="translate(0,0)"/>
<path d="" fill="#FF3F00" transform="translate(0,0)"/>
<path d="" fill="#FF5500" transform="translate(0,0)"/>
<path d="" fill="#FF3F00" transform="translate(0,0)"/>
<path d="" fill="#FF5500" transform="translate(0,0)"/>
<path d="" fill="#FF5500" transform="translate(0,0)"/>
<path d="" fill="#FF3F00" transform="translate(0,0)"/>
<path d="" fill="#FF3F00" transform="translate(0,0)"/>
<path d="" fill="#FF5500" transform="translate(0,0)"/>
<path d="" fill="#FF5500" transform="translate(0,0)"/>
<path d="" fill="#FF3300" transform="translate(0,0)"/>
<path d="" fill="#FF3F00" transform="translate(0,0)"/>
<path d="" fill="#FF3F00" transform="translate(0,0)"/>
<path d="" fill="#FF3F00" transform="translate(0,0)"/>
<path d="" fill="#FF3300" transform="translate(0,0)"/>
<path d="" fill="#FF5500" transform="translate(0,0)"/>
<path d="" fill="#FF6600" transform="translate(0,0)"/>
<path d="" fill="#FF3300" transform="translate(0,0)"/>
<path d="" fill="#FF3F00" transform="translate(0,0)"/>
<path d="" fill="#FF3F00" transform="translate(0,0)"/>
<path d="" fill="#FF5500" transform="translate(0,0)"/>
<path d="" fill="#FF5500" transform="translate(0,0)"/>
<path d="" fill="#FF3F00" transform="translate(0,0)"/>
<path d="" fill="#FF5500" transform="translate(0,0)"/>
<path d="" fill="#FF3F00" transform="translate(0,0)"/>
<path d="" fill="#FF5500" transform="translate(0,0)"/>
<path d="" fill="#FF5500" transform="translate(0,0)"/>
<path d="" fill="#FF5500" transform="translate(0,0)"/>
<path d="" fill="#FF5500" transform="translate(0,0)"/>
<path d="" fill="#FF3F00" transform="translate(0,0)"/>
<path d="" fill="#FF5500" transform="translate(0,0)"/>
<path d="" fill="#FF5500" transform="translate(0,0)"/>
<path d="" fill="#FF5500" transform="translate(0,0)"/>
<path d="" fill="#FF3F00" transform="translate(0,0)"/>
<path d="" fill="#FF5500" transform="translate(0,0)"/>
<path d="" fill="#FF5500" transform="translate(0,0)"/>
<path d="" fill="#FF3F00" transform="translate(0,0)"/>
<path d="" fill="#FF5500" transform="translate(0,0)"/>
<path d="" fill="#FF3F00" transform="translate(0,0)"/>
<path d="" fill="#FF3F00" transform="translate(0,0)"/>
<path d="" fill="#FF3F00" transform="translate(0,0)"/>
<path d="" fill="#FF5500" transform="translate(0,0)"/>
<path d="" fill="#FF3300" transform="translate(0,0)"/>
<path d="" fill="#FF5500" transform="translate(0,0)"/>
<path d="" fill="#FF3F00" transform="translate(0,0)"/>
<path d="" fill="#FF5500" transform="translate(0,0)"/>
<path d="" fill="#FF3300" transform="translate(0,0)"/>
<path d="" fill="#FF3F00" transform="translate(0,0)"/>
<path d="" fill="#FF3F00" transform="translate(0,0)"/>
<path d="" fill="#FF5500" transform="translate(0,0)"/>
<path d="" fill="#FF3F00" transform="translate(0,0)"/>
<path d="" fill="#FF3F00" transform="translate(0,0)"/>
<path d="" fill="#FF3F00" transform="translate(0,0)"/>
<path d="" fill="#FF7F00" transform="translate(0,0)"/>
<path d="" fill="#FF0000" transform="translate(0,0)"/>
<path d="" fill="#FF5500" transform="translate(0,0)"/>
<path d="" fill="#FF5500" transform="translate(0,0)"/>
<path d="" fill="#FF3300" transform="translate(0,0)"/>
<path d="" fill="#FF3F00" transform="translate(0,0)"/>
<path d="" fill="#FF3300" transform="translate(0,0)"/>
<path d="" fill="#FF3F00" transform="translate(0,0)"/>
<path d="" fill="#FF3F00" transform="translate(0,0)"/>
<path d="" fill="#FF5500" transform="translate(0,0)"/>
<path d="" fill="#FF5500" transform="translate(0,0)"/>
<path d="" fill="#FF3F00" transform="translate(0,0)"/>
<path d="" fill="#FF5500" transform="translate(0,0)"/>
<path d="" fill="#FF3F00" transform="translate(0,0)"/>
<path d="" fill="#FF5500" transform="translate(0,0)"/>
<path d="" fill="#FF3300" transform="translate(0,0)"/>
<path d="" fill="#FF5500" transform="translate(0,0)"/>
<path d="" fill="#FF5500" transform="translate(0,0)"/>
<path d="" fill="#FF5500" transform="translate(0,0)"/>
<path d="" fill="#FF5500" transform="translate(0,0)"/>
<path d="" fill="#FF3F00" transform="translate(0,0)"/>
<path d="" fill="#FF3F00" transform="translate(0,0)"/>
<path d="" fill="#FF3F00" transform="translate(0,0)"/>
<path d="" fill="#FF3300" transform="translate(0,0)"/>
<path d="" fill="#FF5500" transform="translate(0,0)"/>
<path d="" fill="#FF3F00" transform="translate(0,0)"/>
<path d="" fill="#FF3F00" transform="translate(0,0)"/>
<path d="" fill="#FF3F00" transform="translate(0,0)"/>
<path d="" fill="#FF0000" transform="translate(0,0)"/>
<path d="" fill="#FF5500" transform="translate(0,0)"/>
<path d="" fill="#FF3F00" transform="translate(0,0)"/>
<path d="" fill="#FF7F00" transform="translate(0,0)"/>
<path d="" fill="#FF5500" transform="translate(0,0)"/>
<path d="" fill="#FF3F00" transform="translate(0,0)"/>
<path d="" fill="#FF5500" transform="translate(0,0)"/>
<path d="" fill="#FF7F00" transform="translate(0,0)"/>
<path d="" fill="#FF3300" transform="translate(0,0)"/>
<path d="" fill="#FF3F00" transform="translate(0,0)"/>
<path d="" fill="#FF5500" transform="translate(0,0)"/>
<path d="" fill="#FF3F00" transform="translate(0,0)"/>
<path d="" fill="#FF3F00" transform="translate(0,0)"/>
<path d="" fill="#FF3F00" transform="translate(0,0)"/>
<path d="" fill="#FF5500" transform="translate(0,0)"/>
<path d="" fill="#FF7F00" transform="translate(0,0)"/>
<path d="" fill="#FF5500" transform="translate(0,0)"/>
<path d="" fill="#FF5500" transform="translate(0,0)"/>
<path d="" fill="#FF7F00" transform="translate(0,0)"/>
<path d="" fill="#FF3F00" transform="translate(0,0)"/>
<path d="" fill="#FF5500" transform="translate(0,0)"/>
<path d="" fill="#FF3300" transform="translate(0,0)"/>
<path d="" fill="#FF3F00" transform="translate(0,0)"/>
<path d="" fill="#FF3300" transform="translate(0,0)"/>
<path d="" fill="#FF3300" transform="translate(0,0)"/>
<path d="" fill="#FF3F00" transform="translate(0,0)"/>
<path d="" fill="#FF3F00" transform="translate(0,0)"/>
<path d="" fill="#FF3F00" transform="translate(0,0)"/>
<path d="" fill="#FF7F00" transform="translate(0,0)"/>
<path d="" fill="#FF7F00" transform="translate(0,0)"/>
<path d="" fill="#FF5500" transform="translate(0,0)"/>
<path d="" fill="#FF7F00" transform="translate(0,0)"/>
<path d="" fill="#FF5500" transform="translate(0,0)"/>
<path d="" fill="#FF3F00" transform="translate(0,0)"/>
<path d="" fill="#FF5500" transform="translate(0,0)"/>
<path d="" fill="#FF3F00" transform="translate(0,0)"/>
<path d="" fill="#FF3F00" transform="translate(0,0)"/>
<path d="" fill="#FF3300" transform="translate(0,0)"/>
<path d="" fill="#FF3F00" transform="translate(0,0)"/>
<path d="" fill="#FF3300" transform="translate(0,0)"/>
<path d="" fill="#FF3300" transform="translate(0,0)"/>
<path d="" fill="#FF3F00" transform="translate(0,0)"/>
<path d="" fill="#FF3F00" transform="translate(0,0)"/>
<path d="" fill="#FF3F00" transform="translate(0,0)"/>
<path d="" fill="#FF3F00" transform="translate(0,0)"/>
<path d="" fill="#FF3300" transform="translate(0,0)"/>
<path d="" fill="#FF5500" transform="translate(0,0)"/>
<path d="" fill="#FF7F00" transform="translate(0,0)"/>
<path d="" fill="#FF3F00" transform="translate(0,0)"/>
<path d="" fill="#FF5500" transform="translate(0,0)"/>
<path d="" fill="#FF7F00" transform="translate(0,0)"/>
<path d="" fill="#FF3F00" transform="translate(0,0)"/>
<path d="" fill="#FF5500" transform="translate(0,0)"/>
<path d="" fill="#FF3F00" transform="translate(0,0)"/>
<path d="" fill="#FF3300" transform="translate(0,0)"/>
<path d="" fill="#FF3F00" transform="translate(0,0)"/>
<path d="" fill="#FF5500" transform="translate(0,0)"/>
<path d="" fill="#FF3F00" transform="translate(0,0)"/>
<path d="" fill="#FF3F00" transform="translate(0,0)"/>
<path d="" fill="#FF3F00" transform="translate(0,0)"/>
<path d="" fill="#FF3F00" transform="translate(0,0)"/>
<path d="" fill="#FF7F00" transform="translate(0,0)"/>
<path d="" fill="#FF7F00" transform="translate(0,0)"/>
<path d="" fill="#FF7F00" transform="translate(0,0)"/>
<path d="" fill="#FF5500" transform="translate(0,0)"/>
<path d="" fill="#FF5500" transform="translate(0,0)"/>
<path d="" fill="#FF3F00" transform="translate(0,0)"/>
<path d="" fill="#FF3300" transform="translate(0,0)"/>
<path d="" fill="#FF3F00" transform="translate(0,0)"/>
<path d="" fill="#FF3F00" transform="translate(0,0)"/>
<path d="" fill="#FF3F00" transform="translate(0,0)"/>
<path d="" fill="#FF3300" transform="translate(0,0)"/>
<path d="" fill="#FF5500" transform="translate(0,0)"/>
<path d="" fill="#FF5500" transform="translate(0,0)"/>
<path d="" fill="#FF3F00" transform="translate(0,0)"/>
<path d="" fill="#FF3F00" transform="translate(0,0)"/>
<path d="" fill="#FF5500" transform="translate(0,0)"/>
<path d="" fill="#FF3300" transform="translate(0,0)"/>
<path d="" fill="#FF5500" transform="translate(0,0)"/>
<path d="" fill="#FF3300" transform="translate(0,0)"/>
<path d="" fill="#FF5500" transform="translate(0,0)"/>
<path d="" fill="#FF3F00" transform="translate(0,0)"/>
<path d="" fill="#FF6600" transform="translate(0,0)"/>
<path d="" fill="#FF5500" transform="translate(0,0)"/>
<path d="" fill="#FF3F00" transform="translate(0,0)"/>
<path d="" fill="#FF3F00" transform="translate(0,0)"/>
<path d="" fill="#FF5500" transform="translate(0,0)"/>
<path d="" fill="#FF5500" transform="translate(0,0)"/>
<path d="" fill="#FF5500" transform="translate(0,0)"/>
<path d="" fill="#FF3F00" transform="translate(0,0)"/>
<path d="" fill="#FF3F00" transform="translate(0,0)"/>
<path d="" fill="#FF3F00" transform="translate(0,0)"/>
<path d="" fill="#FF3F00" transform="translate(0,0)"/>
<path d="" fill="#FF3F00" transform="translate(0,0)"/>
<path d="" fill="#FF3F00" transform="translate(0,0)"/>
<path d="" fill="#FF3300" transform="translate(0,0)"/>
<path d="" fill="#FF5500" transform="translate(0,0)"/>
<path d="" fill="#FF5500" transform="translate(0,0)"/>
<path d="" fill="#FF3F00" transform="translate(0,0)"/>
<path d="" fill="#FF0000" transform="translate(0,0)"/>
<path d="" fill="#FF0000" transform="translate(0,0)"/>
</svg>
